Coordinates
version=1
nRows=4
nColumns=107
inDegrees=yes

Units are S.I. units (second, meters, Newtons, ...)
If the header above contains a line with 'inDegrees', this indicates whether rotational values are in degrees (yes) or radians (no).

endheader
time	sternoclavicular_r2	sternoclavicular_r3	unrotscap_r3	unrotscap_r2	acromioclavicular_r2	acromioclavicular_r3	acromioclavicular_r1	unrothum_r1	unrothum_r3	unrothum_r2	elv_angle	shoulder_elv	shoulder1_r2	shoulder_rot	elbow_flexion	pro_sup	deviation	flexion	proximal_distal_r1	proximal_distal_r3	cmc_flexion	cmc_abduction	mp_flexion	ip_flexion	mcp2_flexion	mcp2_abduction	pm2_flexion	md2_flexion	mcp3_flexion	mcp3_abduction	pm3_flexion	md3_flexion	mcp4_flexion	mcp4_abduction	pm4_flexion	md4_flexion	mcp5_flexion	mcp5_abduction	pm5_flexion	md5_flexion	bicpt_tx	bicpt_ty	bicpt_tz	bicpt2_tx	bicpt2_ty	bicpt2_tz	ptpt_tx	ptpt_ty	ptpt_tz	FCUpt_tx	FCUpt_ty	FCUpt_tz	EDCpt_tx	EDCpt_ty	EDCpt_tz	APLpt_tx	APLpt_ty	APLpt_tz	FPLpt_tx	FPLpt_ty	FPLpt_tz	FPLpt2_tx	FPLpt2_ty	FPLpt2_tz	PEC1pt2_tx	PEC1pt2_ty	PEC1pt2_tz	PEC1pt3_tx	PEC1pt3_ty	PEC1pt3_tz	PEC2pt2_tx	PEC2pt2_ty	PEC2pt2_tz	PEC2pt3_tx	PEC2pt3_ty	PEC2pt3_tz	PEC3pt2_tx	PEC3pt2_ty	PEC3pt2_tz	PEC3pt3_tx	PEC3pt3_ty	PEC3pt3_tz	DELT2pt2a_tx	DELT2pt2a_ty	DELT2pt2a_tz	DELT2pt2_tx	DELT2pt2_ty	DELT2pt2_tz	LAT1pt2_tx	LAT1pt2_ty	LAT1pt2_tz	LAT1pt3_tx	LAT1pt3_ty	LAT1pt3_tz	LAT2pt2_tx	LAT2pt2_ty	LAT2pt2_tz	LAT2pt3_tx	LAT2pt3_ty	LAT2pt3_tz	LAT3pt2_tx	LAT3pt2_ty	LAT3pt2_tz	LAT3pt3_tx	LAT3pt3_ty	LAT3pt3_tz
      1.16666667	     -0.32191883	      0.13634962	     -0.13634962	      0.32191883	     -0.06518201	      0.52677811	      0.23678314	     -0.23678314	     -0.52677811	      0.06518201	     99.84923655	     76.21714415	     -1.74269793	    -24.34646730	     27.87313636	     34.52576727	      0.19891930	     -0.54331991	      0.23757477	     -0.27165995	     29.65042996	    -19.65877730	     -4.09155187	     -3.04821552	      8.15352123	      2.25143329	     24.97706217	     -0.40909459	      7.67933956	     -2.42930849	     16.35004869	     15.77829730	      2.98093107	     -4.18083146	     13.43231759	     19.81745382	     -7.35534260	     -7.83668463	     15.64143448	      5.10137168	      0.00082196	     -0.03079469	     -0.00481458	      0.01652990	     -0.01777187	     -0.00803341	      0.00499894	     -0.06654956	     -0.00283124	      0.00723372	     -0.18360469	     -0.00033628	     -0.00414308	      0.00116218	      0.00017760	      0.00030868	      0.00012347	      0.00061736	      0.00039511	      0.00118533	      0.00066675	     -0.00000806	     -0.00025285	     -0.00030342	      0.00249823	      0.00876498	      0.00609738	     -0.00817218	      0.01973179	     -0.01871556	      0.00249823	      0.00876498	      0.00609738	      0.00055046	      0.01829213	     -0.00961184	      0.00394984	      0.00487409	      0.01597228	      0.00000000	      0.00776888	      0.00000000	     -0.00715595	     -0.03306980	     -0.00640574	      0.01615806	     -0.00056903	     -0.00495126	     -0.00088920	      0.01490470	     -0.00609738	      0.00245589	      0.02151019	     -0.01778402	     -0.00597035	      0.01291458	     -0.00546223	     -0.01244881	      0.02726882	     -0.03052923	     -0.02337328	      0.01443893	     -0.00732532	     -0.01549750	      0.03150311	     -0.03815095
      1.20000000	     -0.32173958	      0.13627370	     -0.13627370	      0.32173958	     -0.06514572	      0.52648480	      0.23665129	     -0.23665129	     -0.52648480	      0.06514572	     99.89169291	     76.17470601	     -1.74343894	    -24.54413020	     27.82805084	     32.98469071	      0.18445851	     -0.54953891	      0.22248735	     -0.27476945	     30.34212557	    -20.84880937	     -1.09404948	     -1.03682667	      5.68114940	      1.04702910	     20.17654441	     -4.61316179	      3.01007385	     -2.83772776	     13.32849238	     14.57990944	     -2.43239190	     -3.53982144	      9.19093644	     19.78558471	    -14.87877290	     -6.21691048	     14.19837990	      5.11294145	      0.00082047	     -0.03078952	     -0.00481375	      0.01650501	     -0.01775963	     -0.00818442	      0.00511280	     -0.06647593	     -0.00270709	      0.00708154	     -0.18363401	     -0.00031809	     -0.00395815	      0.00110246	      0.00018345	      0.00030935	      0.00012374	      0.00061870	      0.00039597	      0.00118791	      0.00066820	     -0.00000900	     -0.00024710	     -0.00029652	      0.00249684	      0.00876010	      0.00609398	     -0.00816763	      0.01972080	     -0.01870514	      0.00249684	      0.00876010	      0.00609398	      0.00055015	      0.01828194	     -0.00960648	      0.00394823	      0.00487138	      0.01596836	      0.00000000	      0.00776017	      0.00000000	     -0.00715196	     -0.03305139	     -0.00639851	      0.01626037	     -0.00057543	     -0.00503305	     -0.00088871	      0.01489640	     -0.00609398	      0.00245452	      0.02149821	     -0.01777411	     -0.00596702	      0.01290739	     -0.00545919	     -0.01244188	      0.02725364	     -0.03051223	     -0.02336026	      0.01443089	     -0.00732124	     -0.01548887	      0.03148557	     -0.03812970
      1.23333333	     -0.32162978	      0.13622719	     -0.13622719	      0.32162978	     -0.06512349	      0.52630512	      0.23657053	     -0.23657053	     -0.52630512	      0.06512349	     99.93166806	     76.14870931	     -1.74413663	    -24.68249139	     27.73605288	     31.72467633	      0.16899448	     -0.56775119	      0.20597383	     -0.28387560	     30.84085108	    -21.58001316	      1.06194480	      0.56149984	      3.49552075	      0.12101076	     17.19220921	     -9.36388751	     -0.84984987	     -3.04843004	     11.28740884	     13.31283760	     -6.79387312	     -2.98132160	      5.51032858	     19.85571527	    -20.77573499	     -4.74967064	     12.84681538	      5.07922622	      0.00081742	     -0.03077898	     -0.00481205	      0.01648061	     -0.01773463	     -0.00830543	      0.00520590	     -0.06641573	     -0.00260559	      0.00695766	     -0.18365749	     -0.00030189	     -0.00380695	      0.00105418	      0.00018727	      0.00031094	      0.00012438	      0.00062189	      0.00039801	      0.00119402	      0.00067164	     -0.00000962	     -0.00024260	     -0.00029112	      0.00249599	      0.00875711	      0.00609190	     -0.00816484	      0.01971407	     -0.01869875	      0.00249599	      0.00875711	      0.00609190	      0.00054996	      0.01827571	     -0.00960321	      0.00394725	      0.00486972	      0.01596595	      0.00000000	      0.00775484	      0.00000000	     -0.00714952	     -0.03304011	     -0.00639408	      0.01633167	     -0.00057992	     -0.00509063	     -0.00088840	      0.01489132	     -0.00609190	      0.00245368	      0.02149088	     -0.01776805	     -0.00596499	      0.01290299	     -0.00545733	     -0.01243763	      0.02724434	     -0.03050181	     -0.02335229	      0.01442596	     -0.00731874	     -0.01548358	      0.03147483	     -0.03811669
      1.26666667	     -0.32167276	      0.13624540	     -0.13624540	      0.32167276	     -0.06513219	      0.52637545	      0.23660214	     -0.23660214	     -0.52637545	      0.06513219	    100.09860980	     76.15888529	     -1.74705032	    -24.66810903	     27.35605325	     31.54617393	      0.17452541	     -0.58970585	      0.21192517	     -0.29485292	     32.35475500	    -22.25104413	      2.18740049	      1.09045872	      1.75783121	      0.24637189	     15.83219841	    -10.63512984	     -2.65213914	     -2.70699239	      9.83750953	     12.62703614	     -8.98173422	     -2.25876758	      3.83221301	     19.41612891	    -23.05492939	     -3.77561827	     11.76537197	      4.94734077	      0.00080485	     -0.03073542	     -0.00480503	      0.01647687	     -0.01763141	     -0.00832239	      0.00521909	     -0.06640720	     -0.00259121	      0.00694014	     -0.18366078	     -0.00029950	     -0.00378553	      0.00104738	      0.00018774	      0.00031213	      0.00012485	      0.00062425	      0.00039952	      0.00119856	      0.00067419	     -0.00001120	     -0.00022730	     -0.00027276	      0.00249632	      0.00875828	      0.00609272	     -0.00816593	      0.01971671	     -0.01870125	      0.00249632	      0.00875828	      0.00609272	      0.00055004	      0.01827815	     -0.00960449	      0.00394763	      0.00487037	      0.01596689	      0.00000000	      0.00775693	      0.00000000	     -0.00715048	     -0.03304452	     -0.00639582	      0.01632427	     -0.00057945	     -0.00508463	     -0.00088852	      0.01489331	     -0.00609272	      0.00245401	      0.02149375	     -0.01777042	     -0.00596578	      0.01290471	     -0.00545806	     -0.01243930	      0.02724798	     -0.03050589	     -0.02335541	      0.01442789	     -0.00731972	     -0.01548565	      0.03147903	     -0.03812179
